<?xml version="1.0" encoding="utf-8"?>
<!-- Generator: Adobe Illustrator 24.3.0, SVG Export Plug-In . SVG Version: 6.00 Build 0)  -->
<svg version="1.1" id="Layer_1" xmlns="http://www.w3.org/2000/svg" xmlns:xlink="http://www.w3.org/1999/xlink" x="0px" y="0px"
	 viewBox="0 0 1080 651.8" style="enable-background:new 0 0 1080 651.8;" xml:space="preserve">
<g>
	<path d="M538.22,651.8c-7.07-5.35-14.06-10.82-21.23-16.04c-47.28-34.43-94.25-69.31-142.06-103.01
		c-26.01-18.33-51.27-37.5-75.23-58.33c-18.52-16.09-36.8-32.41-57.47-45.73c-31.1-20.05-59.01-43.8-83.82-71.2
		c-34.45-38.06-62.07-80.66-84.55-126.73C43.14,167.8,21.99,101.76,9.09,33.01C7.7,25.62,6.7,18.17,5.48,10.75
		c-0.15-0.9-0.57-1.76-0.86-2.64c0-0.28,0-0.56,0-0.84c3.6-0.22,7.19-0.6,10.79-0.64c37.76-0.45,75.53-0.82,113.29-1.28
		c64.1-0.78,128.2-1.61,192.3-2.43c42.64-0.54,85.28-1.09,127.92-1.64c34.97-0.45,69.94-1.5,104.91-1.24
		c66.47,0.48,132.93,1.72,199.39,2.62c41.94,0.57,83.89,1.1,125.83,1.63c43.06,0.55,86.12,1.08,129.18,1.62
		c20.48,0.26,40.97,0.53,61.45,0.8c1.61,0.02,3.23,0,5.72,0c-3.06,16.47-5.63,32.24-8.97,47.85
		c-12.44,58.21-31.1,114.36-56.55,168.23c-27.61,58.44-62.92,111.48-109.66,156.52c-19.02,18.33-39.68,34.57-61.87,48.9
		c-21.02,13.57-39.88,29.85-58.45,46.54c-31.47,28.29-66.67,51.69-100.87,76.4c-45.16,32.64-90.11,65.57-135.14,98.39
		c-0.86,0.63-1.55,1.5-2.32,2.26C540.45,651.8,539.33,651.8,538.22,651.8z M1039.79,30.14c-2.24-0.13-3.6-0.25-4.97-0.27
		c-13.1-0.22-26.2-0.44-39.3-0.61c-64.38-0.83-128.77-1.64-193.15-2.45c-46.55-0.58-93.1-1.16-139.65-1.71
		c-42.09-0.5-84.18-1.53-126.27-1.3c-65.64,0.36-131.28,1.59-196.92,2.45c-42.23,0.55-84.45,1.11-126.68,1.64
		c-51.01,0.64-102.01,1.26-153.02,1.87c-4.14,0.05-8.28,0.01-12.8,0.01c0.28,2.67,0.4,4.6,0.69,6.51
		c4.63,30.75,11.53,60.99,20.39,90.78c20.1,67.57,47.88,131.54,89.4,189c28.07,38.84,61.05,72.78,101.04,99.44
		c20.57,13.72,39.88,28.92,58.56,45.09c16.95,14.66,34.13,29.14,52.09,42.53c27.46,20.49,55.76,39.85,83.54,59.92
		c30.34,21.91,60.49,44.08,90.47,65.96c10.49-7.66,20.8-15.24,31.17-22.75c44-31.87,88.13-63.57,131.98-95.66
		c17.07-12.49,33.7-25.61,50.2-38.85c17.81-14.29,34.64-29.85,52.99-43.39c20.05-14.8,41.09-28.23,59.6-45.09
		c43.42-39.55,76.86-86.53,103.13-138.73c29.03-57.66,49.25-118.4,61.79-181.7C1036.19,52.19,1037.83,41.47,1039.79,30.14z"/>
	<path d="M971.24,86.92c-3,17.35-7.89,33.27-14.29,48.72c-16.22,39.14-40.65,72.04-74.07,98.33
		c-29.63,23.31-63.35,37.35-99.75,45.79c-20.71,4.8-41.84,6.28-62.9,8.42c-47.34,4.81-91.86,18.57-133,42.74
		c-1.06,0.62-2.07,1.33-3.48,2.25c3.58,3.79,7.03,7.36,10.4,11.01c39.34,42.58,69.9,90.8,92.64,144.05
		c1.13,2.65,0.91,3.98-1.58,5.71c-45.65,31.72-91.22,63.54-136.78,95.4c-2.02,1.41-3.46,2.01-5.82,0.35
		c-45.98-32.22-92.02-64.34-138.05-96.49c-0.56-0.39-1.1-0.82-2.13-1.59c24.79-59.19,59.11-112.07,104.47-158.46
		c-2.81-1.7-5.44-3.38-8.15-4.91c-37.87-21.39-78.56-34.07-121.65-39.34c-20.45-2.5-41.06-4.09-61.34-7.62
		c-32.83-5.71-63.72-17.26-91.69-35.6c-46.16-30.27-77.63-72.08-95.62-124.06c-3.81-11-6.44-22.41-9.62-33.62
		c0.35-0.15,0.69-0.29,1.04-0.44c0.35,0.42,0.79,0.8,1.03,1.28c21.46,43.12,53.33,76.89,93.26,103.32
		c31.27,20.7,65.65,33.88,102.04,42.46c23.46,5.53,47.21,8.24,71.17,8.89c54.58,1.5,103.7,18.91,148.38,49.72
		c2.98,2.06,5.91,4.18,8.88,6.26c0.21,0.15,0.51,0.16-0.37-0.1c15.53-9.24,29.97-18.78,45.24-26.75
		c35.36-18.45,73.17-28.03,113.12-29.1c21.62-0.58,43.13-2.6,64.3-7.16c46.04-9.91,88.9-27.14,126.44-56.18
		c32.31-24.99,58.62-55.02,76.58-91.97C970.06,88.03,970.32,87.87,971.24,86.92z M587.36,507.49c0.82-0.55,1.73-1.13,2.61-1.77
		c11.35-8.3,22.71-16.6,34.05-24.91c6.98-5.11,7.08-5.17,3.43-13.1c-13.96-30.39-32.77-57.53-55.69-81.8
		c-8.29-8.78-17.25-16.94-25.98-25.45c-1.66,1.34-2.75,2.18-3.79,3.08c-14.22,12.37-27.31,25.83-39.07,40.57
		c-16.74,20.98-31.22,43.36-41.7,68.18c-1.13,2.66-0.8,4.06,1.61,5.81c17.25,12.49,34.38,25.17,51.56,37.77
		c1.07,0.78,2.24,1.43,4.63,2.94c0-9.42,0.3-17.74-0.1-26.03c-0.3-6.08-1.29-12.16-2.41-18.16c-0.75-4.01-2.89-4.61-6.46-2.78
		c-3.46,1.78-6.95,2.5-10.66,0.19c-1.96-1.22-4.31-1.9-6.56-2.53c-2.53-0.7-5.27-0.75-7.72-1.65c-3.95-1.44-5.03-4.28-2.45-7.44
		c5.17-6.32,10.42-12.66,16.28-18.31c8.65-8.33,19.57-13.12,30.52-17.63c4.03-1.66,3.72-4.5,2.51-7.45
		c-2.43-5.93-2.56-5.88,3.02-9.26c6.72-4.08,14.56-2.94,20.18,2.77c-2.59,5.4-2.91,10.57-0.41,16.11c0.72,1.6,0.48,4.57-0.59,5.86
		c-3.04,3.67-3.32,5.38-0.61,9.32c2.56,3.72,5.65,6.32,10.29,6.99c2.19,0.31,4.33,1.05,6.43,1.76c7.88,2.68,12.65,8.27,14.72,16.2
		c1.24,4.74,0.61,9.44,0.31,14.32C584.77,489.69,586.53,498.45,587.36,507.49z M530.49,426.2c0.07-0.03-0.54,0.05-0.92,0.39
		c-4.03,3.52-7.99,7.12-12.05,10.6c-0.73,0.63-1.83,0.89-2.81,1.15c-1.05,0.28-2.63-0.05-3.16,0.57
		c-4.21,5.03-8.23,10.22-12.3,15.37c0.36,0.62,0.72,1.23,1.08,1.85c3.28-0.55,6.67-0.72,9.8-1.72c5.89-1.89,11.69-3.43,17.99-2.4
		c1.53,0.25,3.6-0.58,4.89-1.59c2.8-2.18,4.06-11.83,2.34-14.97C533.78,432.55,532.28,429.61,530.49,426.2z M570.89,518.92
		c5.63-2.23,8.64-5.23,7.5-10.94c-0.24-1.2,0.09-2.51-0.06-3.74c-0.93-7.27-2.64-14.3-6.44-21.67
		C566.03,495.07,570.82,506.78,570.89,518.92z"/>
	<path d="M470.18,330.81c-10.31,14.41-20.41,28.52-30.12,42.09c-14.06-6.83-27.85-14.09-42.1-20.33
		c-32.23-14.12-65.94-23.81-99.95-32.63c-47.74-12.38-85.35-39.29-112.6-80.38c-4.83-7.28-8.47-15.34-12.62-23.06
		c-0.49-0.91-0.7-1.98-0.94-2.7c11.14,9.52,21.88,19.67,33.61,28.54c33.67,25.46,70.81,43.76,112.69,51.13
		c15.76,2.78,31.78,4,47.61,6.44c32.43,5,64.29,12.26,94.38,25.88C463.65,327.38,467.04,329.23,470.18,330.81z"/>
	<path d="M919.51,212.74c-1.4,3.05-2.35,5.29-3.45,7.46c-26.64,52.61-68.94,85.73-125.81,100.38
		c-39.87,10.27-79.06,22.37-116.19,40.41c-7.87,3.82-15.44,8.25-23.18,12.41c-10.02-14.03-20.1-28.13-30.57-42.8
		c6.47-2.93,13.03-6.22,19.83-8.94c30.87-12.33,63.13-19.2,95.96-23.34c25.17-3.18,50.31-6.01,74.34-14.92
		c29.8-11.05,57.04-26.55,81.74-46.44C901.36,229.57,909.87,221.33,919.51,212.74z"/>
	<path d="M680.48,428.79c-7.47-15.06-14.7-29.63-22.11-44.57c11.38-5.28,23.05-10.83,34.83-16.13
		c37.83-17.02,75.89-33.55,115.83-45.11c18.7-5.41,36.74-12.09,53.31-22.38c14.76-9.16,28.03-20.1,39.09-33.6
		c0.36,0.21,0.72,0.42,1.09,0.63c-3.55,6.76-6.73,13.74-10.73,20.23c-17.74,28.79-42.65,49.21-73.75,62.28
		c-40.6,17.06-78.36,39.28-115.05,63.42C695.47,418.51,688.07,423.65,680.48,428.79z"/>
	<path d="M410.21,428.65c-11.97-7.92-23.69-15.9-35.63-23.54c-33.36-21.34-67.92-40.41-104.38-56.1
		c-36.92-15.89-64.25-42.04-80.69-79.05c-0.37-0.84-0.59-1.74-0.64-1.87c8.25,7.44,16.47,15.75,25.6,22.91
		c17.95,14.08,38.25,23.78,60.24,29.93c36.31,10.14,71.08,24.41,105.52,39.52c16.32,7.16,32.42,14.81,48.61,22.26
		c1.24,0.57,2.42,1.24,3.32,1.71C424.81,399.22,417.58,413.79,410.21,428.65z"/>
	<path d="M347.58,150.97c-11.56,0-23.81,0-36.72,0c4.47-5.56,3.12-11.8,3.17-17.78c0.11-13.23,0.16-26.47-0.04-39.7
		c-0.07-4.44-0.94-8.87-1.49-13.67c2.39,0,5.69,0,8.98,0c11.99,0,23.97,0.03,35.96-0.01c8.43-0.02,15.87,2.61,22.29,8.06
		c4.38,3.72,6.91,8.26,6.54,14.21c-0.18,2.91-0.28,5.87,0.02,8.77c0.87,8.42-3.17,14.08-9.84,18.41c-0.92,0.6-1.82,1.22-3.1,2.08
		c6.43,5.87,12.65,11.56,19.69,17.99c0.63-2.57,1.46-4.44,1.47-6.31c0.11-18.39,0.16-36.78,0-55.16c-0.02-2.5-1.27-4.98-2.05-7.81
		c1.08-0.07,2.38-0.21,3.68-0.21c18.12-0.02,36.24,0.1,54.36-0.11c3.57-0.04,5.05,0.98,5.26,4.5c0.14,2.33,0.84,4.62,1.27,6.87
		c-10.19,0-20.25,0-30.59,0c0,10.99,0,22.18,0,33.98c9.06-0.81,18.13,1.7,27.18-2.54c0,5.24,0,10.24,0,14.16
		c-8.86-0.44-17.78-0.89-27.19-1.36c-0.1,1.89-0.16,3.17-0.22,4.37c10.4,0,20.45,0,30.8,0c-0.55,2.92-0.89,6.25-1.9,9.35
		c-0.32,0.98-2.42,1.94-3.72,1.95c-17.14,0.13-34.29,0.08-51.43,0.08c-1.06,0-2.13,0-3.19,0c-0.13,0.28-0.27,0.57-0.4,0.85
		c2.41,1.9,4.82,3.8,7.74,6.11c-1.54,0.17-2.54,0.38-3.54,0.38c-9.34,0-18.68,0.12-28.01-0.17c-2.1-0.06-4.58-1.09-6.15-2.5
		c-6.73-5.98-13.19-12.28-19.74-18.45c-0.44,0.15-0.89,0.3-1.33,0.45C346.05,142.03,346.78,146.3,347.58,150.97z M355.24,123.47
		c0-10.93,0-21.68,0-32.64c-3.2,0-6.15,0-9.17,0c0,11.04,0,21.78,0,32.64C349.24,123.47,352.11,123.47,355.24,123.47z"/>
	<path d="M542.35,79.85c10.24,0,21.47-0.06,32.69,0.11c0.99,0.02,2.28,1.39,2.89,2.45c3.55,6.15,6.93,12.39,10.38,18.59
		c0.59,1.06,1.27,2.06,2.14,3.46c4.14-7.5,8.11-14.52,11.89-21.65c1.19-2.25,2.63-3.1,5.22-3.06c10.72,0.15,21.44,0.06,32.91,0.06
		c-4.36,5.75-2.99,11.95-3.04,17.91c-0.12,13.65-0.17,27.3,0.04,40.94c0.06,4,1.11,7.99,1.73,12.15c-7.82,0-16.57,0-25.16,0
		c4.53-11.26,1.25-22.78,2.44-34.05c-0.36-0.12-0.71-0.24-1.07-0.36c-8.23,11.46-16.46,22.91-25.11,34.95
		c-8.29-11.6-16.36-22.9-24.43-34.2c-0.36,0.12-0.72,0.25-1.08,0.37c1.31,10.95-2.21,22.22,2.58,33.25c-8.57,0-17.34,0-25.16,0
		c0.6-4.48,1.66-9,1.73-13.54c0.22-14.62,0.21-29.25,0.01-43.87C543.89,88.98,542.93,84.58,542.35,79.85z"/>
	<path d="M386.52,484.27c-3.76-3.53-8.1-7.19-11.97-11.29c-26.59-28.16-55.68-53.33-88-74.77c-24.2-16.06-45.73-35.08-62.84-58.76
		c-2.2-3.04-4.19-6.24-6.26-9.38c-0.2-0.31-0.21-0.74-0.25-0.89c7.67,5.83,14.95,12.56,23.3,17.44
		c15.6,9.12,31.61,17.59,47.82,25.58c32.58,16.07,63.06,35.54,92.91,56.09c7.21,4.96,14.3,10.1,20.81,14.71
		C396.7,457.23,391.54,470.94,386.52,484.27z"/>
	<path d="M704.37,485.14c-5.26-14.07-10.35-27.68-15.71-42.02c-0.41,0.52-0.16,0.01,0.25-0.29c35.74-25.74,72.13-50.5,111.9-69.73
		c19.2-9.28,38.59-18.13,55.85-30.86c5.7-4.21,11.07-8.86,17.28-13.85c-1.14,1.98-1.88,3.44-2.77,4.8
		c-15.93,24.2-36.37,44.1-60.27,60.11c-32.55,21.81-62.59,46.47-90.03,74.37C715.25,473.4,709.85,479.34,704.37,485.14z"/>
	<path d="M677.78,136.13c0.86,5.18,1.63,9.84,2.43,14.67c-11.47,0-23.75,0-35.08,0c0.53-4.73,1.47-9.55,1.54-14.37
		c0.21-14.49,0.2-28.98,0-43.46c-0.06-4.29-1.01-8.56-1.56-12.95c11.32,0,23.53,0,34.83,0c-0.5,4.57-1.34,9.12-1.43,13.7
		c-0.22,10.15-0.07,20.31-0.07,30.87c3.67,0,7.03,0,11.16,0c-1.02-14.81,1.7-29.73-1.79-44.55c11.43,0,23.6,0,34.85,0
		c-0.51,4.72-1.38,9.29-1.43,13.86c-0.18,15.04-0.19,30.09,0.02,45.13c0.05,3.85,1.15,7.69,1.8,11.76c-11.48,0-23.84,0-35.43,0
		c0.82-4.73,1.64-9.48,2.53-14.64C685.61,136.13,682.13,136.13,677.78,136.13z"/>
	<path d="M536.12,150.87c-9.99,0-20.9,0-32.33,0c0-4.87,0-9.66,0-14.78c-3.2,0-5.9,0-9.24,0c0,4.82,0,9.73,0,14.82
		c-11.69,0-22.76,0-32.84,0c0.53-4.92,1.41-9.73,1.5-14.57c0.22-11.83,0.17-23.67,0.02-35.51c-0.07-5.67,1.86-10.51,6.78-12.98
		c6-3.02,12.37-5.99,18.9-7.16c12.54-2.25,25-1.14,36.46,5.36c6.18,3.5,9.54,8.35,9.29,15.9c-0.4,11.82-0.24,23.67-0.03,35.51
		C534.7,141.88,535.59,146.29,536.12,150.87z M494.75,90.79c0,11.41,0,22.56,0,34.19c1.9,0,3.54-0.15,5.15,0.03
		c2.93,0.33,3.97-0.8,3.76-3.74c-0.23-3.18-0.03-6.38-0.03-9.58c0-6.91,0-13.81,0-20.9C500.38,90.79,497.68,90.79,494.75,90.79z"/>
	<path d="M864.66,114.64c3.98,1.81,7.88,3.28,11.47,5.29c3.9,2.17,5.35,5.71,5.86,10.31c1.84,16.59-9.3,19.87-21.46,20.49
		c-17.22,0.88-34.51,0.22-52.38,0.22c4.8-6.47,3.07-13.69,3.17-20.61c0.19-12.52,0.17-25.05-0.05-37.57
		c-0.07-4.16-1.05-8.3-1.66-12.77c0.29-0.02,1.46-0.19,2.63-0.19c15.04-0.01,30.08,0.03,45.11,0c6.53-0.01,12.74,1.19,18.42,4.51
		c3.85,2.25,6.11,5.36,6.13,10.13C881.97,107.82,879.41,110.92,864.66,114.64z M840.34,119.3c0,7.5,0,14.5,0,21.43
		c2.85,0,5.38,0,7.84,0c0-7.36,0-14.36,0-21.43C845.43,119.3,842.98,119.3,840.34,119.3z M840.41,90.79c0,7.24,0,14.18,0,21.11
		c2.81,0,5.24,0,7.85,0c0-7.14,0-13.99,0-21.11C845.6,90.79,843.16,90.79,840.41,90.79z"/>
	<path d="M730.73,79.97c11.28,0,23.24,0,35.84,0c-4.6,6.09-2.97,12.87-3.06,19.36c-0.17,12.26-0.05,24.52-0.05,36.78
		c0,1.5,0,3.01,0,4.79c2.83,0,5.26,0,8.22,0c0-1.52,0-3.01,0-4.49c0-14.21,0.12-28.42-0.07-42.63c-0.06-4.56-0.92-9.12-1.43-13.8
		c11.08,0,23.15,0,34.27,0c-0.48,4.66-1.28,9.23-1.36,13.8c-0.19,11.7-0.06,23.4-0.07,35.1c-0.01,11.42-10.18,21.98-21.6,22.17
		c-9.34,0.16-18.68,0.19-28.01-0.01c-10.97-0.24-21.15-10.86-21.15-21.73c0-12.54,0.11-25.08-0.07-37.61
		C732.15,87.95,731.29,84.2,730.73,79.97z"/>
	<path d="M236.05,151.73c0.71-5.26,1.73-9.52,1.78-13.78c0.2-15.58,0.18-31.16,0-46.74c-0.04-3.6-1.04-7.19-1.71-11.54
		c-0.56,0.66-0.4,0.3-0.24,0.31c15.7,0.25,31.41,0.32,47.1,0.94c3.75,0.15,7.55,1.83,11.13,3.3c8.62,3.54,13.68,9.24,12.8,19.51
		c-0.74,8.56-0.46,17.25-0.05,25.86c0.32,6.73-2.56,11.41-8.05,14.38c-4.35,2.36-9.09,5.06-13.84,5.43
		C268.44,150.69,251.83,151.05,236.05,151.73z M276.7,140.85c0-16.73,0-33.23,0-50.03c-2.87,0-5.55,0-8.35,0
		c0,16.83,0,33.42,0,50.03C271.27,140.85,273.86,140.85,276.7,140.85z"/>
	<path d="M518.6,215.25c5.15-1.01,9.19-2,13.3-2.55c3.39-0.46,5.38-1.89,6.45-5.3c1.27-4.06,3.17-7.93,5.06-12.51
		c2.91,4.96,5.26,9.37,8.05,13.49c0.91,1.35,2.85,2.51,4.48,2.78c4.74,0.78,9.57,1.06,15.13,1.62c-3.71,4.15-7.05,7.51-9.9,11.23
		c-1.05,1.38-1.57,3.72-1.29,5.45c0.79,4.88,2.12,9.68,3.4,15.22c-5.07-2.35-9.37-4.6-13.88-6.29c-1.63-0.61-4.04-0.45-5.61,0.33
		c-4.17,2.07-8.08,4.67-12.79,7.47c0.5-5.82,1.12-10.75,1.24-15.7c0.04-1.65-0.82-3.74-1.99-4.9
		C526.82,222.18,523.03,219.13,518.6,215.25z"/>
</g>
</svg>
