<?xml version="1.0" encoding="utf-8"?>
<!-- Generator: Adobe Illustrator 24.3.0, SVG Export Plug-In . SVG Version: 6.00 Build 0)  -->
<svg version="1.1" id="Layer_1" xmlns="http://www.w3.org/2000/svg" xmlns:xlink="http://www.w3.org/1999/xlink" x="0px" y="0px"
	 viewBox="0 0 1080 147.06" style="enable-background:new 0 0 1080 147.06;" xml:space="preserve">
<style type="text/css">
	.st0{fill:#FFFFFF;}
</style>
<g>
	<path class="st0" d="M190.14,126.38c-19.14,0-39.4,0-60.77,0c7.4-9.21,5.17-19.52,5.25-29.42c0.17-21.9,0.26-43.81-0.06-65.71
		c-0.11-7.35-1.56-14.68-2.46-22.63c3.96,0,9.41,0,14.87,0c19.84,0,39.68,0.04,59.51-0.01c13.95-0.04,26.26,4.32,36.89,13.35
		c7.24,6.15,11.44,13.67,10.83,23.52c-0.3,4.82-0.47,9.72,0.03,14.51c1.44,13.93-5.24,23.31-16.29,30.46
		c-1.52,0.99-3.02,2.02-5.13,3.44c10.64,9.72,20.94,19.13,32.59,29.78c1.03-4.26,2.42-7.35,2.44-10.45c0.18-30.43,0.26-60.87,0-91.3
		c-0.04-4.13-2.11-8.25-3.39-12.93c1.79-0.11,3.94-0.35,6.09-0.35c29.99-0.03,59.98,0.16,89.96-0.18c5.91-0.07,8.36,1.62,8.7,7.45
		c0.22,3.85,1.38,7.65,2.1,11.37c-16.87,0-33.51,0-50.63,0c0,18.19,0,36.71,0,56.24c14.99-1.34,30,2.82,44.98-4.2
		c0,8.67,0,16.95,0,23.44c-14.66-0.73-29.42-1.47-44.99-2.25c-0.16,3.13-0.27,5.24-0.37,7.24c17.21,0,33.85,0,50.98,0
		c-0.9,4.84-1.48,10.34-3.15,15.48c-0.53,1.62-4.01,3.2-6.16,3.22c-28.37,0.21-56.74,0.14-85.12,0.14c-1.76,0-3.52,0-5.29,0
		c-0.22,0.47-0.44,0.94-0.66,1.41c3.99,3.14,7.97,6.29,12.81,10.1c-2.56,0.28-4.21,0.62-5.86,0.62c-15.45,0-30.92,0.2-46.36-0.28
		c-3.47-0.11-7.57-1.81-10.18-4.13c-11.14-9.9-21.83-20.32-32.68-30.54c-0.74,0.25-1.47,0.49-2.21,0.74
		C187.61,111.58,188.82,118.65,190.14,126.38z M202.83,80.86c0-18.09,0-35.88,0-54.02c-5.29,0-10.18,0-15.17,0
		c0,18.28,0,36.05,0,54.02C192.89,80.86,197.64,80.86,202.83,80.86z"/>
	<path class="st0" d="M512.5,8.67c16.94,0,35.53-0.11,54.11,0.18c1.64,0.03,3.77,2.31,4.78,4.06c5.87,10.17,11.46,20.51,17.18,30.77
		c0.97,1.75,2.1,3.41,3.54,5.73c6.85-12.41,13.42-24.03,19.68-35.82c1.97-3.72,4.36-5.13,8.64-5.07c17.74,0.25,35.48,0.1,54.47,0.1
		c-7.22,9.52-4.95,19.78-5.04,29.64c-0.2,22.59-0.28,45.18,0.07,67.76c0.1,6.63,1.83,13.23,2.86,20.12c-12.95,0-27.42,0-41.64,0
		c7.5-18.63,2.06-37.7,4.04-56.35c-0.59-0.2-1.18-0.39-1.76-0.59c-13.62,18.96-27.24,37.92-41.56,57.85
		c-13.72-19.21-27.08-37.9-40.44-56.6c-0.6,0.21-1.19,0.41-1.79,0.62c2.17,18.13-3.65,36.77,4.27,55.04c-14.19,0-28.69,0-41.63,0
		c0.99-7.41,2.74-14.9,2.86-22.41c0.37-24.2,0.34-48.41,0.01-72.6C515.05,23.78,513.47,16.5,512.5,8.67z"/>
	<path class="st0" d="M736.64,101.83c1.42,8.58,2.7,16.29,4.02,24.27c-18.99,0-39.3,0-58.06,0c0.88-7.83,2.43-15.8,2.55-23.79
		c0.34-23.97,0.32-47.96,0-71.93c-0.1-7.1-1.67-14.17-2.59-21.44c18.73,0,38.94,0,57.64,0c-0.83,7.56-2.21,15.1-2.37,22.67
		c-0.36,16.8-0.11,33.61-0.11,51.09c6.07,0,11.64,0,18.47,0c-1.68-24.51,2.81-49.2-2.96-73.73c18.92,0,39.07,0,57.69,0
		c-0.85,7.82-2.28,15.37-2.37,22.94c-0.3,24.9-0.32,49.8,0.03,74.7c0.09,6.38,1.9,12.73,2.98,19.46c-19,0-39.46,0-58.63,0
		c1.35-7.82,2.71-15.69,4.18-24.23C749.59,101.83,743.84,101.83,736.64,101.83z"/>
	<path class="st0" d="M502.2,126.22c-16.53,0-34.59,0-53.51,0c0-8.06,0-15.98,0-24.47c-5.3,0-9.77,0-15.29,0c0,7.98,0,16.11,0,24.52
		c-19.35,0-37.66,0-54.36,0c0.88-8.14,2.33-16.11,2.48-24.11c0.36-19.58,0.28-39.18,0.04-58.77c-0.12-9.38,3.08-17.39,11.22-21.49
		c9.93-5.01,20.47-9.91,31.28-11.84c20.76-3.72,41.37-1.88,60.34,8.87c10.23,5.8,15.79,13.82,15.37,26.32
		c-0.66,19.57-0.4,39.18-0.06,58.76C499.84,111.33,501.31,118.63,502.2,126.22z M433.73,26.77c0,18.89,0,37.34,0,56.59
		c3.14,0,5.86-0.24,8.53,0.05c4.85,0.54,6.57-1.32,6.22-6.2c-0.38-5.26-0.06-10.56-0.05-15.85c0.01-11.43,0-22.86,0-34.6
		C443.04,26.77,438.57,26.77,433.73,26.77z"/>
	<path class="st0" d="M1045.92,66.26c6.59,2.99,13.04,5.43,18.99,8.75c6.46,3.6,8.86,9.45,9.7,17.07
		c3.04,27.46-15.39,32.89-35.51,33.91c-28.49,1.45-57.11,0.37-86.69,0.37c7.95-10.71,5.08-22.65,5.25-34.11
		c0.31-20.72,0.29-41.46-0.08-62.19c-0.12-6.88-1.74-13.74-2.74-21.13c0.48-0.04,2.41-0.31,4.35-0.32
		c24.89-0.02,49.78,0.05,74.66-0.01c10.8-0.02,21.08,1.96,30.48,7.47c6.37,3.73,10.11,8.88,10.15,16.77
		C1074.57,54.97,1070.33,60.1,1045.92,66.26z M1005.69,73.96c0,12.42,0,24,0,35.46c4.71,0,8.91,0,12.98,0c0-12.18,0-23.77,0-35.46
		C1014.11,73.96,1010.05,73.96,1005.69,73.96z M1005.8,26.78c0,11.98,0,23.47,0,34.94c4.66,0,8.68,0,12.99,0
		c0-11.81,0-23.16,0-34.94C1014.39,26.78,1010.35,26.78,1005.8,26.78z"/>
	<path class="st0" d="M824.27,8.88c18.66,0,38.46,0,59.32,0c-7.62,10.09-4.91,21.3-5.06,32.04c-0.29,20.28-0.08,40.58-0.08,60.86
		c0,2.49,0,4.98,0,7.93c4.69,0,8.7,0,13.6,0c0-2.52,0-4.98,0-7.43c0-23.52,0.2-47.03-0.11-70.55c-0.1-7.55-1.53-15.09-2.37-22.84
		c18.33,0,38.31,0,56.72,0c-0.8,7.72-2.12,15.27-2.25,22.84c-0.32,19.36-0.1,38.73-0.11,58.1c-0.01,18.9-16.84,36.37-35.74,36.69
		c-15.45,0.27-30.91,0.32-46.36-0.02c-18.15-0.39-35-17.97-35-35.96c0-20.75,0.18-41.5-0.11-62.25
		C826.62,22.08,825.19,15.88,824.27,8.88z"/>
	<path class="st0" d="M5.57,127.64c1.18-8.71,2.86-15.75,2.95-22.81c0.33-25.78,0.3-51.57,0.01-77.36
		c-0.07-5.96-1.71-11.9-2.83-19.1c-0.93,1.09-0.66,0.5-0.4,0.51c25.99,0.41,51.98,0.54,77.94,1.56c6.21,0.25,12.5,3.02,18.41,5.45
		c14.26,5.86,22.64,15.29,21.18,32.28c-1.22,14.17-0.77,28.55-0.09,42.8c0.53,11.14-4.24,18.88-13.32,23.8
		c-7.2,3.9-15.05,8.37-22.9,8.99C59.17,125.92,31.69,126.51,5.57,127.64z M72.84,109.64c0-27.69,0-55,0-82.8c-4.75,0-9.19,0-13.83,0
		c0,27.85,0,55.32,0,82.8C63.86,109.64,68.15,109.64,72.84,109.64z"/>
</g>
</svg>
